<?xml version="1.0" encoding="UTF-8"?>
<svg width="88px" height="88px" viewBox="0 0 88 88" version="1.1" xmlns="http://www.w3.org/2000/svg" xmlns:xlink="http://www.w3.org/1999/xlink">
    <title>Group Copy</title>
    <g id="Page-1" stroke="none" stroke-width="1" fill="none" fill-rule="evenodd">
        <g id="LegaLight" transform="translate(-91.000000, -361.000000)" stroke="#2C91FB">
            <g id="Group-Copy" transform="translate(94.492433, 363.607429)">
                <path d="M67,27 L67,67 L27,67 L27,66.281 L66.9575063,66.2812919 L66.957,27 L67,27 Z" id="Combined-Shape" stroke-width="9"></path>
                <rect id="Rectangle" stroke-width="9" x="2" y="2" width="40" height="40"></rect>
                <path d="M0.83166441,43.4253305 C13.447537,56.6654989 21.647422,64.8653839 25.4313193,68.0249855" id="Path-2" stroke-width="9"></path>
                <path d="M43.2520278,0.639623729 C56.259431,14.2906977 64.7137975,22.7450642 68.6151273,26.0027232" id="Path-2" stroke-width="9"></path>
                <path d="M21.6369005,22 C52.0440042,53.9117977 71.8075798,73.6753734 80.9276276,81.290727" id="Path-2" stroke-width="9"></path>
                <path d="M24.4045663,19.4058532 L24.4045663,24.6157231 L18.8766503,24.6157231 L18.8766503,19.4058532 L24.4045663,19.4058532 Z" id="Rectangle-2" fill="#2C91FB"></path>
                <path d="M83.3093018,78.3363766 L83.3093018,84.2464447 L78.5509127,84.2464447 L78.5509127,78.3363766 L83.3093018,78.3363766 Z" id="Rectangle-2" fill="#2C91FB"></path>
            </g>
        </g>
    </g>
</svg>
